<svg xmlns="http://www.w3.org/2000/svg" width="18" height="18" viewBox="0 0 18 18" fill="none">
    <path fillRule="evenodd" clipRule="evenodd" d="M5.59666 1.91669C3.36082 1.91669 1.91666 3.27919 1.91666 5.38752V12.6117C1.91666 14.72 3.36082 16.0834 5.59666 16.0834H12.4033C14.6392 16.0834 16.0833 14.72 16.0833 12.6117V5.38752C16.0833 3.27919 14.6392 1.91669 12.4033 1.91669H5.59666ZM12.4033 17.3334H5.59666C2.64832 17.3334 0.666656 15.4359 0.666656 12.6117V5.38752C0.666656 2.56335 2.64832 0.666687 5.59666 0.666687H12.4033C15.3517 0.666687 17.3333 2.56335 17.3333 5.38752V12.6117C17.3333 15.4359 15.3517 17.3334 12.4033 17.3334Z" fill="#5E626F" />
    <path fillRule="evenodd" clipRule="evenodd" d="M12.4049 9.625H5.59491C5.24991 9.625 4.96991 9.345 4.96991 9C4.96991 8.655 5.24991 8.375 5.59491 8.375H12.4049C12.7499 8.375 13.0299 8.655 13.0299 9C13.0299 9.345 12.7499 9.625 12.4049 9.625Z" fill="#5E626F" />
    <path fillRule="evenodd" clipRule="evenodd" d="M9.26858 12.7484C9.10858 12.7484 8.94775 12.6875 8.82608 12.5642C8.58275 12.3192 8.58358 11.9242 8.82775 11.6809L11.5194 9.00002L8.82775 6.31918C8.58358 6.07585 8.58275 5.68085 8.82608 5.43585C9.06942 5.19085 9.46442 5.19085 9.70942 5.43418L12.8461 8.55752C12.9644 8.67418 13.0303 8.83418 13.0303 9.00002C13.0303 9.16585 12.9644 9.32585 12.8461 9.44252L9.70942 12.5659C9.58775 12.6875 9.42775 12.7484 9.26858 12.7484Z" fill="#5E626F" />
</svg>