<svg xmlns="http://www.w3.org/2000/svg" width="24" height="24" viewBox="0 0 24 24" fill="none">
    <g clip-path="url(#clip0_7_17)">
        <path d="M4.45567 17.1767C4.62332 17.3386 4.84786 17.4282 5.08093 17.4262C5.314 17.4242 5.53694 17.3307 5.70175 17.1659C5.86656 17.0011 5.96005 16.7781 5.96207 16.5451C5.9641 16.312 5.8745 16.0875 5.71258 15.9198L1.89661 12.1037L5.71258 8.28769C5.8745 8.12004 5.9641 7.8955 5.96207 7.66243C5.96005 7.42936 5.86656 7.20641 5.70175 7.0416C5.53694 6.87679 5.314 6.78331 5.08093 6.78128C4.84786 6.77926 4.62332 6.86885 4.45567 7.03078L0.0111583 11.4753C-0.155485 11.642 -0.2491 11.868 -0.2491 12.1037C-0.2491 12.3394 -0.155485 12.5655 0.0111583 12.7322L4.45567 17.1767Z" fill="#7388A9" />
        <path d="M17.7892 17.1767C17.9559 17.3434 18.182 17.437 18.4177 17.437C18.6534 17.437 18.8794 17.3434 19.0461 17.1767L23.4906 12.7322C23.6573 12.5655 23.7509 12.3395 23.7509 12.1037C23.7509 11.868 23.6573 11.642 23.4906 11.4753L19.0461 7.03078C18.8785 6.86885 18.6539 6.77926 18.4209 6.78128C18.1878 6.78331 17.9649 6.87679 17.8 7.0416C17.6352 7.20641 17.5418 7.42936 17.5397 7.66243C17.5377 7.8955 17.6273 8.12004 17.7892 8.28769L21.6052 12.1037L17.7892 15.9198C17.6226 16.0865 17.529 16.3126 17.529 16.5483C17.529 16.784 17.6226 17.01 17.7892 17.1767Z" fill="#7388A9" />
        <path d="M8.73396 19.1432C8.84128 19.1892 8.95662 19.2137 9.07338 19.2151C9.19015 19.2166 9.30605 19.195 9.41447 19.1516C9.52289 19.1082 9.6217 19.0439 9.70526 18.9623C9.78881 18.8808 9.85548 18.7835 9.90145 18.6762L15.2349 6.23155C15.3278 6.0148 15.3307 5.77003 15.2431 5.55109C15.1556 5.33214 14.9846 5.15696 14.7678 5.06407C14.5511 4.97118 14.3063 4.9682 14.0874 5.05579C13.8684 5.14337 13.6932 5.31435 13.6004 5.5311L8.26693 17.9757C8.22091 18.0831 8.19648 18.1984 8.19504 18.3152C8.19361 18.4319 8.21519 18.5478 8.25856 18.6562C8.30193 18.7647 8.36624 18.8635 8.44781 18.947C8.52938 19.0306 8.62662 19.0973 8.73396 19.1432Z" fill="#7388A9" />
    </g>
    <defs>
        <clipPath id="clip0_7_17">
            <rect width="24" height="24" fill="white" />
        </clipPath>
    </defs>
</svg>