<svg xmlns="http://www.w3.org/2000/svg" width="27" height="27" viewBox="0 0 27 27" fill="none">
    <circle cx="13.7607" cy="13.5" r="13" fill="#BBF3D2"/>
    <path d="M17.9441 9.60344C17.3592 9.60344 16.9024 9.13177 16.5905 8.63699C16.5455 8.56551 16.496 8.49655 16.442 8.43011C16.1812 8.10075 15.8279 7.85373 15.3819 7.68906C14.9358 7.52438 14.4281 7.44204 13.8586 7.44204C13.2616 7.44204 12.7367 7.53467 12.2838 7.71993C11.831 7.9052 11.481 8.16594 11.234 8.50215C10.987 8.83151 10.8635 9.2089 10.8635 9.63431C10.8635 10.2656 11.1208 10.7528 11.6354 11.0958C12.1569 11.432 12.8053 11.6928 13.5807 11.8781L15.0113 12.2589C16.2533 12.5676 17.2791 13.0411 18.0887 13.6792C18.9053 14.3173 19.3135 15.2471 19.3135 16.4684C19.3135 17.3124 19.094 18.0672 18.6548 18.7328C18.2225 19.3915 17.5878 19.9061 16.7507 20.2766C15.9205 20.6472 14.9324 20.8324 13.7865 20.8324C12.675 20.8324 11.7109 20.654 10.8944 20.2972C10.0847 19.9404 9.44658 19.4361 8.98 18.7842C8.7372 18.44 8.55086 18.0613 8.42099 17.6481C8.22397 17.0214 8.76291 16.4582 9.41988 16.4582C10.0143 16.4582 10.4742 16.9428 10.7681 17.4594C10.8313 17.5705 10.9042 17.6759 10.987 17.7756C11.2889 18.1324 11.68 18.4 12.1603 18.5784C12.6475 18.7568 13.1861 18.8426 13.7762 18.8357C14.4075 18.8357 14.9736 18.7362 15.4745 18.5372C15.9754 18.3382 16.3665 18.0569 16.6478 17.6932C16.9291 17.3296 17.0698 16.9076 17.0698 16.4273C17.0698 16.0156 16.9532 15.6656 16.7199 15.3775C16.4866 15.0893 16.1675 14.856 15.7627 14.6776C15.3578 14.4992 14.8569 14.3311 14.26 14.1733L12.4897 13.7101C11.2409 13.367 10.2803 12.8764 9.60783 12.2383C8.94226 11.5933 8.6129 10.7665 8.61976 9.75782C8.61976 8.91385 8.8462 8.16594 9.29906 7.51409C9.75879 6.86224 10.3901 6.36134 11.1929 6.0114C12.0025 5.6546 12.9083 5.4762 13.91 5.4762C14.905 5.4762 15.7935 5.6546 16.5758 6.0114C17.3648 6.36134 17.979 6.85194 18.4181 7.48321C18.6365 7.78904 18.8031 8.11462 18.9179 8.45995C19.1195 9.06667 18.5834 9.60344 17.9441 9.60344Z" fill="#00C696"/>
    <path d="M13.9512 4.5L13.9512 6.3291" stroke="#00C696" stroke-width="2" stroke-linecap="round"/>
    <path d="M13.9512 19.9178L13.9512 21.7469" stroke="#00C696" stroke-width="2" stroke-linecap="round"/>
</svg>