 <svg xmlns="http://www.w3.org/2000/svg" width="24" height="24" viewBox="0 0 24 24" fill="none">
                            <path d="M21.0836 9.24888C20.6824 9.19292 20.2994 9.05077 19.9633 8.83303C19.6272 8.61529 19.3466 8.32755 19.1424 7.99125C18.9382 7.65495 18.8156 7.27876 18.7839 6.89067C18.7521 6.50259 18.8119 6.11262 18.9588 5.74981C19.0522 5.51261 19.066 5.2533 18.9982 5.00822C18.9303 4.76314 18.7843 4.54458 18.5806 4.38319C17.6812 3.65807 16.6575 3.08843 15.5551 2.69967C15.304 2.61014 15.0299 2.59895 14.7719 2.66771C14.5139 2.73646 14.285 2.88165 14.1179 3.08259C13.8664 3.39134 13.545 3.64105 13.1781 3.81278C12.8111 3.98452 12.4082 4.07377 12 4.07377C11.5918 4.07377 11.1889 3.98452 10.822 3.81278C10.455 3.64105 10.1336 3.39134 9.88211 3.08259C9.71503 2.88165 9.48616 2.73646 9.22811 2.66771C8.97007 2.59895 8.696 2.61014 8.44496 2.69967C7.42704 3.05859 6.47531 3.57119 5.62568 4.21814C5.41151 4.38092 5.25725 4.60526 5.18549 4.8583C5.11372 5.11135 5.12822 5.37981 5.22685 5.62437C5.38553 5.99678 5.45109 6.39971 5.41827 6.80085C5.38546 7.20198 5.25518 7.59015 5.03789 7.93421C4.82061 8.27827 4.52236 8.56865 4.16707 8.78205C3.81179 8.99545 3.40936 9.12594 2.99206 9.16305C2.72114 9.19086 2.46668 9.30145 2.26614 9.47854C2.0656 9.65563 1.92957 9.88986 1.8781 10.1468C1.75006 10.7553 1.68556 11.3745 1.68556 11.9953C1.68462 12.515 1.72832 13.034 1.81621 13.5468C1.85995 13.8119 1.99345 14.0558 2.19604 14.2408C2.39864 14.4257 2.65907 14.5415 2.93705 14.5701C3.36351 14.6085 3.77419 14.7445 4.1347 14.9666C4.49521 15.1886 4.79506 15.4904 5.00917 15.8466C5.22328 16.2028 5.34541 16.603 5.36534 17.0138C5.38526 17.4246 5.30241 17.8341 5.12371 18.2078C5.00676 18.4509 4.97775 18.7246 5.04129 18.9853C5.10483 19.2461 5.25726 19.479 5.4744 19.6471C6.3684 20.359 7.38228 20.9194 8.47247 21.3042C8.61188 21.3505 8.75815 21.375 8.90567 21.3768C9.10795 21.3764 9.30718 21.3294 9.48665 21.2398C9.66611 21.1502 9.82059 21.0206 9.93712 20.8618C10.1822 20.519 10.5107 20.2388 10.8942 20.0455C11.2776 19.8522 11.7044 19.7517 12.1375 19.7527C12.5572 19.7532 12.9709 19.8478 13.3457 20.0289C13.7206 20.21 14.0462 20.4726 14.2967 20.7958C14.4633 21.0108 14.6993 21.1669 14.968 21.2398C15.2366 21.3126 15.5228 21.2981 15.782 21.1985C16.7788 20.8133 17.7069 20.281 18.5325 19.6206C18.7399 19.456 18.8876 19.2325 18.9543 18.9822C19.021 18.7318 19.0033 18.4677 18.9038 18.2276C18.7421 17.86 18.6716 17.4613 18.6978 17.0631C18.7241 16.6648 18.8464 16.2778 19.0551 15.9327C19.2638 15.5877 19.5533 15.2939 19.9005 15.0746C20.2478 14.8553 20.6434 14.7165 21.0561 14.6691C21.3237 14.6336 21.5726 14.5172 21.7667 14.3368C21.9608 14.1564 22.09 13.9213 22.1357 13.6656C22.2461 13.115 22.3059 12.556 22.3145 11.9953C22.3146 11.4039 22.257 10.8137 22.1425 10.2326C22.0961 9.98256 21.9688 9.75294 21.7787 9.57635C21.5886 9.39976 21.3454 9.28518 21.0836 9.24888ZM15.4382 11.9953C15.4382 12.6482 15.2365 13.2864 14.8587 13.8293C14.4809 14.3721 13.944 14.7952 13.3157 15.0451C12.6875 15.2949 11.9962 15.3603 11.3293 15.2329C10.6623 15.1055 10.0497 14.7911 9.56887 14.3295C9.08804 13.8678 8.76058 13.2796 8.62792 12.6393C8.49526 11.999 8.56335 11.3353 8.82357 10.7321C9.0838 10.1289 9.52447 9.61335 10.0899 9.25063C10.6553 8.88791 11.32 8.69431 12 8.69431C12.9119 8.69431 13.7864 9.04209 14.4311 9.66115C15.0759 10.2802 15.4382 11.1198 15.4382 11.9953Z" fill="#7A8FAD" />
                        </svg>