<svg xmlns="http://www.w3.org/2000/svg" width="32" height="32" viewBox="0 0 32 32" fill="none">
    <path d="M25 2H7C4.24316 2 2 4.24316 2 7V25C2 27.7568 4.24316 30 7 30H25C27.7568 30 30 27.7568 30 25V7C30 4.24316 27.7568 2 25 2ZM25 28H7C5.3457 28 4 26.6543 4 25V17.5H10.7988C12.5283 17.5 14.1396 18.2744 15.2188 19.625C16.6807 21.4521 18.8613 22.5 21.2012 22.5H28V25C28 26.6543 26.6543 28 25 28ZM7 4H25C26.6543 4 28 5.3457 28 7V20.5H21.2012C19.4717 20.5 17.8604 19.7256 16.7812 18.375C15.3193 16.5479 13.1387 15.5 10.7988 15.5H4V7C4 5.3457 5.3457 4 7 4Z" fill="white" />
    <path d="M22 14C24.2061 14 26 12.2061 26 10C26 7.79395 24.2061 6 22 6C19.7939 6 18 7.79395 18 10C18 12.2061 19.7939 14 22 14ZM22 8C23.1025 8 24 8.89746 24 10C24 11.1025 23.1025 12 22 12C20.8975 12 20 11.1025 20 10C20 8.89746 20.8975 8 22 8Z" fill="white" />
</svg>