<svg xmlns="http://www.w3.org/2000/svg" width="32" height="32" viewBox="0 0 32 32" fill="none">
    <path d="M28.9639 15H27.7036C27.4778 12.34 26.3549 9.7428 24.3242 7.71191C22.2941 5.68182 19.6985 4.55859 17.04 4.33197V3C17.04 2.44775 16.5923 2 16.04 2C15.4878 2 15.04 2.44775 15.04 3V4.3316C12.379 4.5567 9.78052 5.67993 7.74854 7.71191C5.71747 9.7428 4.5943 12.34 4.36847 15H3.03613C2.48389 15 2.03613 15.4478 2.03613 16C2.03613 16.5522 2.48389 17 3.03613 17H4.36847C4.5943 19.66 5.71747 22.2572 7.74854 24.2881C9.78058 26.3201 12.379 27.4433 15.04 27.6683V29C15.04 29.5522 15.4878 30 16.04 30C16.5923 30 17.04 29.5522 17.04 29V27.668C19.6988 27.4413 22.2941 26.3182 24.3242 24.2881C26.3549 22.2572 27.4778 19.66 27.7036 17H28.9639C29.5166 17 29.9639 16.5522 29.9639 16C29.9639 15.4478 29.5166 15 28.9639 15ZM22.9102 22.874C21.27 24.5138 19.1848 25.4409 17.04 25.6618V24.4424C17.04 23.8901 16.5923 23.4424 16.04 23.4424C15.4878 23.4424 15.04 23.8901 15.04 24.4424V25.663C12.8926 25.4436 10.8044 24.5159 9.1626 22.874C7.52179 21.233 6.59436 19.1462 6.37427 17H7.59424C8.14648 17 8.59424 16.5522 8.59424 16C8.59424 15.4478 8.14648 15 7.59424 15H6.37427C6.59436 12.8538 7.52179 10.767 9.1626 9.12598C10.8047 7.48425 12.8925 6.5564 15.04 6.33685V7.55762C15.04 8.10986 15.4878 8.55762 16.04 8.55762C16.5923 8.55762 17.04 8.10986 17.04 7.55762V6.33789C19.1848 6.55872 21.2707 7.48608 22.9102 9.12598C24.551 10.767 25.4784 12.8538 25.6985 15H24.4062C23.8535 15 23.4062 15.4478 23.4062 16C23.4062 16.5522 23.8535 17 24.4062 17H25.6985C25.4784 19.1462 24.551 21.233 22.9102 22.874Z" fill="white" />
    <path d="M21.2071 12.9493L18.6573 12.5626L17.5088 10.131C17.2276 9.53528 16.6494 9.16516 16 9.16516C15.3506 9.16516 14.773 9.53528 14.4917 10.1305L13.3433 12.5626L10.793 12.9493C10.1704 13.0441 9.65774 13.4796 9.45559 14.0865C9.24905 14.7062 9.40237 15.3776 9.85647 15.84L11.7271 17.7457L11.2837 20.4474C11.1763 21.1041 11.4429 21.7482 11.9805 22.1281C12.2671 22.3307 12.5996 22.4337 12.9336 22.4337C13.2056 22.4337 13.479 22.3654 13.7295 22.2277L16 20.9806L18.2705 22.2277C18.8301 22.5353 19.499 22.4967 20.0186 22.1285C20.5567 21.7491 20.8233 21.1051 20.7158 20.4469L20.2725 17.7452L22.1426 15.8405C22.5967 15.3785 22.751 14.7067 22.5449 14.087C22.3428 13.4801 21.8301 13.0441 21.2071 12.9493ZM18.2774 17.9337L18.6406 20.149L16.7954 19.1354C16.2974 18.8619 15.7027 18.8619 15.2046 19.1354L13.3594 20.149L13.7232 17.9337C13.812 17.3922 13.6377 16.8365 13.2559 16.4479L11.6758 14.8385L13.8213 14.5128C14.3697 14.4288 14.8404 14.0748 15.0811 13.5665L16 11.6202L16.9199 13.5685C17.1612 14.0758 17.6309 14.4288 18.1797 14.5133L20.3233 14.8385L18.7422 16.4489C18.3633 16.8365 18.1885 17.3912 18.2774 17.9337Z" fill="white" />
</svg>